<svg xmlns="http://www.w3.org/2000/svg" viewBox="0 0 100 100" width="100" height="100">
  <defs>
    <linearGradient id="gradient" x1="0%" y1="0%" x2="100%" y2="100%">
      <stop offset="0%" style="stop-color:#60a5fa"/>
      <stop offset="50%" style="stop-color:#3b82f6"/>
      <stop offset="100%" style="stop-color:#1d4ed8"/>
    </linearGradient>
    <filter id="glow">
      <feGaussianBlur stdDeviation="2" result="coloredBlur"/>
      <feMerge> 
        <feMergeNode in="coloredBlur"/>
        <feMergeNode in="SourceGraphic"/>
      </feMerge>
    </filter>
  </defs>
  
  <!-- Background circle -->
  <circle cx="50" cy="50" r="45" fill="url(#gradient)" opacity="0.2"/>
  
  <!-- Magic wand icon (FontAwesome fa-magic path) -->
  <g transform="translate(50,50) scale(1.8,1.8) translate(-8,-8)" fill="url(#gradient)" filter="url(#glow)">
    <path d="M13.813 5.188L10.5 8.5l-1.312-1.312-.563.563 1.875 1.875-1.5 1.5.563.563L11.5 9.251l3.313-3.313-.5-.5zm-9.25 9.25l1.625 1.625L12.5 9.75l-1.625-1.625L4.563 14.438zM3 10l1 1-1 1-1-1 1-1zm12-9l1 1-1 1-1-1 1-1zM2 2l1 1-1 1-1-1 1-1zm12 12l1 1-1 1-1-1 1-1z"/>
  </g>
  
  <!-- Sparkles -->
  <g fill="#60a5fa" opacity="0.8">
    <circle cx="25" cy="25" r="1.5"/>
    <circle cx="75" cy="20" r="1"/>
    <circle cx="20" cy="75" r="1"/>
    <circle cx="80" cy="75" r="1.5"/>
  </g>
</svg> 